<?xml version="1.0" standalone="no"?>
<!DOCTYPE svg PUBLIC "-//W3C//DTD SVG 1.1//EN" "http://www.w3.org/Graphics/SVG/1.1/DTD/svg11.dtd" >
<svg xmlns="http://www.w3.org/2000/svg" xmlns:xlink="http://www.w3.org/1999/xlink" version="1.1" viewBox="0 0 25 25" width="25" height="25">
  <g transform="matrix(0.024414, 0, 0, 0.024414, 2.106934, 6.18396)" data-bx-origin="32.339275 11.226665">
    <path d="M 425.106 258.52 m -509.813 0 a 509.813 509.242 0 1 0 1019.626 0 a 509.813 509.242 0 1 0 -1019.626 0 Z M 425.106 258.52 m 0 0 a 0 0 0 0 1 0 0 a 0 0 0 0 1 0 0 Z" data-bx-shape="ring 425.106 258.52 0 0 509.813 509.242 1@a3f7ebc3" style="fill: rgb(216, 216, 216); stroke: rgb(0, 0, 0);"></path>
    <path fill="#CC6A9B" d="M 715.701 297.705 C 711.701 307.705 705.368 318.038 696.701 328.705 C 685.368 342.038 673.701 351.705 661.701 357.705 C 645.701 365.705 630.035 367.372 614.701 362.705 C 622.035 333.372 625.701 303.038 625.701 271.705 L 625.701 226.705 C 635.701 211.372 644.368 200.372 651.701 193.705 C 665.701 181.038 681.035 176.372 697.701 179.705 C 719.035 183.705 730.368 199.038 731.701 225.705 C 732.368 247.038 727.035 271.038 715.701 297.705 Z M 937.701 258.705 C 937.701 330.705 924.368 397.372 897.701 458.705 C 871.035 520.038 834.201 574.205 787.201 621.205 C 740.201 668.205 686.035 704.872 624.701 731.205 C 563.368 757.538 496.868 770.705 425.201 770.705 C 353.535 770.705 286.868 757.538 225.201 731.205 C 163.535 704.872 109.535 668.538 63.201 622.205 C 16.868 575.872 -19.632 521.538 -46.299 459.205 C -72.965 396.872 -86.299 330.205 -86.299 259.205 C -86.299 188.205 -73.132 121.872 -46.799 60.205 C -20.465 -1.462 16.201 -55.795 63.201 -102.795 C 110.201 -149.795 164.368 -186.628 225.701 -213.295 C 287.035 -239.962 353.535 -253.295 425.201 -253.295 C 496.868 -253.295 563.368 -239.962 624.701 -213.295 C 686.035 -186.628 740.368 -149.462 787.701 -101.795 C 835.035 -54.128 871.868 0.038 898.201 60.705 C 924.535 121.372 937.701 187.372 937.701 258.705 Z M 780.701 174.705 C 768.035 144.038 747.368 124.372 718.701 115.705 C 686.035 106.372 655.035 115.038 625.701 141.705 L 625.701 57.705 C 625.701 53.705 624.368 50.205 621.701 47.205 C 619.035 44.205 616.035 42.705 612.701 42.705 L 191.701 42.705 C 188.368 42.705 185.201 44.205 182.201 47.205 C 179.201 50.205 177.701 53.705 177.701 57.705 L 177.701 271.705 C 177.701 286.372 179.035 300.705 181.701 314.705 C 184.368 328.705 188.035 342.038 192.701 354.705 C 197.368 367.372 202.701 379.538 208.701 391.205 C 214.701 402.872 221.368 414.038 228.701 424.705 C 235.368 434.705 242.701 444.705 250.701 454.705 C 257.368 463.372 265.035 472.038 273.701 480.705 L 313.701 523.705 C 315.701 526.372 318.701 527.705 322.701 527.705 L 482.701 527.705 C 486.701 527.705 489.701 526.372 491.701 523.705 C 497.035 518.372 508.701 508.372 526.701 493.705 C 544.701 479.038 558.035 467.372 566.701 458.705 C 582.035 443.372 592.368 429.038 597.701 415.705 C 611.035 421.705 623.368 424.705 634.701 424.705 C 661.368 424.705 686.035 416.705 708.701 400.705 C 731.368 384.705 749.535 361.705 763.201 331.705 C 776.868 301.705 785.368 273.038 788.701 245.705 C 792.035 218.372 789.368 194.705 780.701 174.705 Z" data-bx-origin="0.114923 0.268154"></path>
  </g>
</svg>