<?xml version="1.0" encoding="utf-8"?>
<svg viewBox="10 10 230 71.376" width="230" height="71.376" xmlns="http://www.w3.org/2000/svg" xmlns:bx="https://boxy-svg.com">
  <g clip-path="none" transform="matrix(0.30303, 0, 0, 0.30303, -595.453988, -72.121133)" style="" bx:origin="1.642858 -3.071432">
    <path d="M1998 386.5C1998 322.711 2049.71 271 2113.5 271 2177.29 271 2229 322.711 2229 386.5 2229 450.289 2177.29 502 2113.5 502 2049.71 502 1998 450.289 1998 386.5Z" fill="#241AEE" fill-rule="evenodd"/>
  </g>
  <g transform="matrix(1, 0, 0, 1, 83.258477, 81.376413)" bx:origin="0 0"/>
  <g clip-path="none" transform="matrix(0.30303, 0, 0, 0.30303, -435.453986, -72.121133)" style="" bx:origin="-0.642858 -3.071432">
    <path d="M1998 386.5C1998 322.711 2049.71 271 2113.5 271 2177.29 271 2229 322.711 2229 386.5 2229 450.289 2177.29 502 2113.5 502 2049.71 502 1998 450.289 1998 386.5Z" fill-rule="evenodd" style="fill: rgb(236, 171, 255);"/>
  </g>
  <g clip-path="none" transform="matrix(0.30303, 0, 0, 0.30303, -515.453987, -72.121133)" style="" bx:origin="0.5 -3.071432">
    <path d="M1998 386.5C1998 322.711 2049.71 271 2113.5 271 2177.29 271 2229 322.711 2229 386.5 2229 450.289 2177.29 502 2113.5 502 2049.71 502 1998 450.289 1998 386.5Z" fill-rule="evenodd" style="fill: rgb(166, 162, 248);"/>
  </g>
</svg>