<?xml version="1.0" encoding="utf-8"?>
<svg viewBox="0 0 500 500" xmlns="http://www.w3.org/2000/svg">
  <g clip-path="none" transform="matrix(0.30303001403808594, 0, 0, 0.30303001403808594, -595.45458984375, -72.1212158203125)" style="">
    <path d="M1998 386.5C1998 322.711 2049.71 271 2113.5 271 2177.29 271 2229 322.711 2229 386.5 2229 450.289 2177.29 502 2113.5 502 2049.71 502 1998 450.289 1998 386.5Z" fill="#241AEE" fill-rule="evenodd"/>
  </g>
  <g transform="matrix(1, 0, 0, 1, 83.2578811645508, 81.37633514404298)"/>
  <g clip-path="none" transform="matrix(0.30303001403808594, 0, 0, 0.30303001403808594, -435.45458984375, -72.1212158203125)" style="">
    <path d="M1998 386.5C1998 322.711 2049.71 271 2113.5 271 2177.29 271 2229 322.711 2229 386.5 2229 450.289 2177.29 502 2113.5 502 2049.71 502 1998 450.289 1998 386.5Z" fill-rule="evenodd" style="fill: rgb(236, 171, 255);"/>
  </g>
  <g clip-path="none" transform="matrix(0.30303001403808594, 0, 0, 0.30303001403808594, -515.45458984375, -72.1212158203125)" style="">
    <path d="M1998 386.5C1998 322.711 2049.71 271 2113.5 271 2177.29 271 2229 322.711 2229 386.5 2229 450.289 2177.29 502 2113.5 502 2049.71 502 1998 450.289 1998 386.5Z" fill-rule="evenodd" style="fill: rgb(166, 162, 248);"/>
  </g>
</svg>